<mxfile host="app.diagrams.net" modified="2025-07-01T15:45:00.000Z" agent="GitHub Copilot" version="24.4.9" etag="first-cut-model-system" type="device">
  <diagram name="First Cut Model Generation System" id="fcm-architecture">
    <mxGraphModel dx="1434" dy="784" grid="1" gridSize="10" guides="1" tooltips="1" connect="1" arrows="1" fold="1" page="1" pageScale="1" pageWidth="1400" pageHeight="1000" background="#ffffff" math="0" shadow="0">
      <root>
        <mxCell id="0" />
        <mxCell id="1" parent="0" />
          <!-- Actor -->
        <mxCell id="actor" value="Business User" style="shape=umlActor;verticalLabelPosition=bottom;verticalAlign=top;html=1;outlineConnect=0;fillColor=#f8cecc;strokeColor=#b85450;" vertex="1" parent="1">
          <mxGeometry x="30" y="10" width="30" height="60" as="geometry" />
        </mxCell>
        
        <!-- Title -->
        <mxCell id="title" value="Multi-Agent First Cut Model Generation System" style="text;html=1;strokeColor=none;fillColor=none;align=center;verticalAlign=middle;whiteSpace=wrap;rounded=0;fontSize=20;fontStyle=1;" vertex="1" parent="1">
          <mxGeometry x="400" y="20" width="600" height="30" as="geometry" />
        </mxCell>
        
        <!-- Input Documents Section -->
        <mxCell id="input-section" value="Input Documents" style="shape=swimlane;fontStyle=1;align=center;verticalAlign=top;childLayout=stackLayout;horizontal=1;startSize=26;horizontalStack=0;resizeParent=1;resizeParentMax=0;resizeLast=0;collapsible=1;marginBottom=0;fillColor=#f8f9fa;strokeColor=#dee2e6;fontSize=14;" vertex="1" parent="1">
          <mxGeometry x="50" y="80" width="320" height="40" as="geometry" />
        </mxCell>
          <mxCell id="earnings-report" value="Quarterly Earnings Report&#xa;(PDF)" style="shape=document;whiteSpace=wrap;html=1;boundedLbl=1;fillColor=#d5e8d4;strokeColor=#82b366;size=0.25;" vertex="1" parent="1">
          <mxGeometry x="70" y="150" width="130" height="80" as="geometry" />
        </mxCell>
        
        <mxCell id="previous-model" value="Previous Quarter&#xa;First Cut Model&#xa;(CSV)" style="shape=document;whiteSpace=wrap;html=1;boundedLbl=1;fillColor=#d5e8d4;strokeColor=#82b366;size=0.25;" vertex="1" parent="1">
          <mxGeometry x="220" y="150" width="130" height="80" as="geometry" />
        </mxCell>
          <!-- Step 1: Data Processing -->
        <mxCell id="step1-header" value="Step 1: Data Processing Pipeline" style="shape=process;whiteSpace=wrap;html=1;backgroundOutline=1;fillColor=#fff2cc;strokeColor=#d6b656;fontSize=14;fontStyle=1;" vertex="1" parent="1">
          <mxGeometry x="50" y="280" width="320" height="40" as="geometry" />
        </mxCell>
        
        <mxCell id="cleanse-chunk" value="Cleanse &amp; Chunk&#xa;Documents" style="shape=process;whiteSpace=wrap;html=1;backgroundOutline=1;fillColor=#dae8fc;strokeColor=#6c8ebf;" vertex="1" parent="1">
          <mxGeometry x="70" y="350" width="120" height="60" as="geometry" />
        </mxCell>
        
        <mxCell id="vector-store" value="Vector Database&#xa;(Document Store)" style="shape=cylinder3;whiteSpace=wrap;html=1;boundedLbl=1;backgroundOutline=1;size=15;fillColor=#f8cecc;strokeColor=#b85450;" vertex="1" parent="1">
          <mxGeometry x="220" y="340" width="130" height="80" as="geometry" />
        </mxCell>
          <!-- Multi-Agent System -->
        <mxCell id="agent-system" value="Multi-Agent System" style="shape=swimlane;fontStyle=1;align=center;verticalAlign=top;childLayout=stackLayout;horizontal=1;startSize=26;horizontalStack=0;resizeParent=1;resizeParentMax=0;resizeLast=0;collapsible=1;marginBottom=0;fillColor=#e6f3ff;strokeColor=#1f497d;fontSize=16;" vertex="1" parent="1">
          <mxGeometry x="450" y="80" width="900" height="700" as="geometry" />
        </mxCell>
        
        <!-- Step 2: Agent 1 Draft Generation -->
        <mxCell id="step2-header" value="Step 2: Draft Generation" style="shape=process;whiteSpace=wrap;html=1;backgroundOutline=1;fillColor=#e1d5e7;strokeColor=#9673a6;fontSize=14;fontStyle=1;" vertex="1" parent="1">
          <mxGeometry x="480" y="120" width="250" height="40" as="geometry" />
        </mxCell>
          <mxCell id="agent1-draft" value="Agent 1&#xa;Equity Research Analyst&#xa;(Draft Generation)" style="rounded=1;whiteSpace=wrap;html=1;fillColor=#dae8fc;strokeColor=#6c8ebf;" vertex="1" parent="1">
          <mxGeometry x="500" y="180" width="180" height="80" as="geometry" />
        </mxCell>
        
        <mxCell id="draft-output" value="Draft Model&#xa;(Internal)" style="shape=document;whiteSpace=wrap;html=1;boundedLbl=1;fillColor=#fff2cc;strokeColor=#d6b656;size=0.25;" vertex="1" parent="1">
          <mxGeometry x="720" y="190" width="100" height="60" as="geometry" />
        </mxCell>
          <!-- Step 3: Senior Agent Review -->
        <mxCell id="step3-header" value="Step 3: Senior Review &amp; Feedback" style="shape=process;whiteSpace=wrap;html=1;backgroundOutline=1;fillColor=#e1d5e7;strokeColor=#9673a6;fontSize=14;fontStyle=1;" vertex="1" parent="1">
          <mxGeometry x="480" y="300" width="250" height="40" as="geometry" />
        </mxCell>
          <mxCell id="agent2-review" value="Agent 2&#xa;Sr. Equity Research Analyst&#xa;(Review &amp; Feedback)" style="rounded=1;whiteSpace=wrap;html=1;fillColor=#f8cecc;strokeColor=#b85450;" vertex="1" parent="1">
          <mxGeometry x="500" y="360" width="180" height="80" as="geometry" />
        </mxCell>
        
        <mxCell id="feedback" value="Constructive&#xa;Feedback" style="shape=document;whiteSpace=wrap;html=1;boundedLbl=1;fillColor=#ffe6cc;strokeColor=#d79b00;size=0.25;" vertex="1" parent="1">
          <mxGeometry x="720" y="370" width="100" height="60" as="geometry" />
        </mxCell>
          <!-- Step 4: Agent 1 Final Generation -->
        <mxCell id="step4-header" value="Step 4: Final Model Generation" style="shape=process;whiteSpace=wrap;html=1;backgroundOutline=1;fillColor=#e1d5e7;strokeColor=#9673a6;fontSize=14;fontStyle=1;" vertex="1" parent="1">
          <mxGeometry x="480" y="480" width="250" height="40" as="geometry" />
        </mxCell>
          <mxCell id="agent1-final" value="Agent 1&#xa;Equity Research Analyst&#xa;(Final Generation)" style="rounded=1;whiteSpace=wrap;html=1;fillColor=#dae8fc;strokeColor=#6c8ebf;" vertex="1" parent="1">
          <mxGeometry x="500" y="540" width="180" height="80" as="geometry" />
        </mxCell>
        
        <!-- Step 5: File Writing -->
        <mxCell id="step5-header" value="Step 5: File Output" style="shape=process;whiteSpace=wrap;html=1;backgroundOutline=1;fillColor=#e1d5e7;strokeColor=#9673a6;fontSize=14;fontStyle=1;" vertex="1" parent="1">
          <mxGeometry x="480" y="660" width="250" height="40" as="geometry" />
        </mxCell>
          <mxCell id="agent1-writer" value="Agent 1&#xa;CSV File Writer" style="rounded=1;whiteSpace=wrap;html=1;fillColor=#dae8fc;strokeColor=#6c8ebf;" vertex="1" parent="1">
          <mxGeometry x="500" y="720" width="180" height="50" as="geometry" />
        </mxCell>
          <!-- Tools Section -->
        <mxCell id="tools-section" value="Tools &amp; Capabilities" style="shape=swimlane;fontStyle=1;align=center;verticalAlign=top;childLayout=stackLayout;horizontal=1;startSize=26;horizontalStack=0;resizeParent=1;resizeParentMax=0;resizeLast=0;collapsible=1;marginBottom=0;fillColor=#f5f5f5;strokeColor=#666666;fontSize=14;" vertex="1" parent="1">
          <mxGeometry x="880" y="120" width="420" height="40" as="geometry" />
        </mxCell>
        
        <mxCell id="rag-tool" value="RAG Tool&#xa;(Document Retrieval)" style="shape=mxgraph.basic.gear;whiteSpace=wrap;html=1;fillColor=#f5f5f5;strokeColor=#666666;" vertex="1" parent="1">
          <mxGeometry x="900" y="180" width="120" height="60" as="geometry" />
        </mxCell>
        
        <mxCell id="excel-tool" value="Excel Parser Tool&#xa;(CSV Processing)" style="shape=mxgraph.basic.gear;whiteSpace=wrap;html=1;fillColor=#f5f5f5;strokeColor=#666666;" vertex="1" parent="1">
          <mxGeometry x="1040" y="180" width="120" height="60" as="geometry" />
        </mxCell>
        
        <mxCell id="pdf-tool" value="PDF Extractor Tool&#xa;(Text Processing)" style="shape=mxgraph.basic.gear;whiteSpace=wrap;html=1;fillColor=#f5f5f5;strokeColor=#666666;" vertex="1" parent="1">
          <mxGeometry x="1180" y="180" width="120" height="60" as="geometry" />
        </mxCell>
        
        <mxCell id="analysis-tool" value="Financial Analysis Tool&#xa;(Calculations)" style="shape=mxgraph.basic.gear;whiteSpace=wrap;html=1;fillColor=#f5f5f5;strokeColor=#666666;" vertex="1" parent="1">
          <mxGeometry x="900" y="260" width="120" height="60" as="geometry" />
        </mxCell>
        
        <mxCell id="validation-tool" value="Model Validation Tool&#xa;(Quality Check)" style="shape=mxgraph.basic.gear;whiteSpace=wrap;html=1;fillColor=#f5f5f5;strokeColor=#666666;" vertex="1" parent="1">
          <mxGeometry x="1040" y="260" width="120" height="60" as="geometry" />
        </mxCell>
        
        <mxCell id="file-writer-tool" value="File Writer Tool&#xa;(CSV Export)" style="shape=mxgraph.basic.gear;whiteSpace=wrap;html=1;fillColor=#f5f5f5;strokeColor=#666666;" vertex="1" parent="1">
          <mxGeometry x="1180" y="260" width="120" height="60" as="geometry" />
        </mxCell>
          <!-- Output -->
        <mxCell id="final-output" value="First Cut Model&#xa;(CSV File)" style="shape=document;whiteSpace=wrap;html=1;boundedLbl=1;fillColor=#d5e8d4;strokeColor=#82b366;size=0.25;" vertex="1" parent="1">
          <mxGeometry x="620" y="820" width="160" height="80" as="geometry" />
        </mxCell>
        
        <!-- Actor connection -->
        <mxCell id="actor-conn" value="Requests First Cut Model" style="endArrow=classic;html=1;rounded=0;" edge="1" parent="1" source="actor" target="input-section">
          <mxGeometry width="50" height="50" relative="1" as="geometry">
            <mxPoint x="70" y="50" as="sourcePoint" />
            <mxPoint x="120" y="80" as="targetPoint" />
          </mxGeometry>
        </mxCell>
        
        <!-- Data Flow Arrows -->
        <mxCell id="flow1" value="" style="endArrow=classic;html=1;rounded=0;" edge="1" parent="1" source="earnings-report" target="cleanse-chunk">
          <mxGeometry width="50" height="50" relative="1" as="geometry">
            <mxPoint x="135" y="240" as="sourcePoint" />
            <mxPoint x="130" y="340" as="targetPoint" />
          </mxGeometry>
        </mxCell>
        
        <mxCell id="flow2" value="" style="endArrow=classic;html=1;rounded=0;" edge="1" parent="1" source="previous-model" target="cleanse-chunk">
          <mxGeometry width="50" height="50" relative="1" as="geometry">
            <mxPoint x="285" y="240" as="sourcePoint" />
            <mxPoint x="150" y="340" as="targetPoint" />
            <Array as="points">
              <mxPoint x="285" y="280" />
              <mxPoint x="150" y="280" />
            </Array>
          </mxGeometry>
        </mxCell>
        
        <mxCell id="flow3" value="" style="endArrow=classic;html=1;rounded=0;" edge="1" parent="1" source="cleanse-chunk" target="vector-store">
          <mxGeometry width="50" height="50" relative="1" as="geometry">
            <mxPoint x="190" y="380" as="sourcePoint" />
            <mxPoint x="220" y="380" as="targetPoint" />
          </mxGeometry>
        </mxCell>
        
        <mxCell id="flow4" value="" style="endArrow=classic;html=1;rounded=0;" edge="1" parent="1" source="vector-store" target="agent1-draft">
          <mxGeometry width="50" height="50" relative="1" as="geometry">
            <mxPoint x="350" y="380" as="sourcePoint" />
            <mxPoint x="490" y="220" as="targetPoint" />
            <Array as="points">
              <mxPoint x="420" y="380" />
              <mxPoint x="420" y="220" />
            </Array>
          </mxGeometry>
        </mxCell>
        
        <mxCell id="flow5" value="" style="endArrow=classic;html=1;rounded=0;" edge="1" parent="1" source="agent1-draft" target="draft-output">
          <mxGeometry width="50" height="50" relative="1" as="geometry">
            <mxPoint x="680" y="220" as="sourcePoint" />
            <mxPoint x="720" y="220" as="targetPoint" />
          </mxGeometry>
        </mxCell>
        
        <mxCell id="flow6" value="" style="endArrow=classic;html=1;rounded=0;" edge="1" parent="1" source="draft-output" target="agent2-review">
          <mxGeometry width="50" height="50" relative="1" as="geometry">
            <mxPoint x="770" y="250" as="sourcePoint" />
            <mxPoint x="590" y="350" as="targetPoint" />
            <Array as="points">
              <mxPoint x="770" y="280" />
              <mxPoint x="590" y="280" />
            </Array>
          </mxGeometry>
        </mxCell>
        
        <mxCell id="flow7" value="" style="endArrow=classic;html=1;rounded=0;" edge="1" parent="1" source="agent2-review" target="feedback">
          <mxGeometry width="50" height="50" relative="1" as="geometry">
            <mxPoint x="680" y="400" as="sourcePoint" />
            <mxPoint x="720" y="400" as="targetPoint" />
          </mxGeometry>
        </mxCell>
        
        <mxCell id="flow8" value="" style="endArrow=classic;html=1;rounded=0;" edge="1" parent="1" source="feedback" target="agent1-final">
          <mxGeometry width="50" height="50" relative="1" as="geometry">
            <mxPoint x="770" y="430" as="sourcePoint" />
            <mxPoint x="590" y="530" as="targetPoint" />
            <Array as="points">
              <mxPoint x="770" y="460" />
              <mxPoint x="590" y="460" />
            </Array>
          </mxGeometry>
        </mxCell>
        
        <mxCell id="flow9" value="" style="endArrow=classic;html=1;rounded=0;" edge="1" parent="1" source="agent1-final" target="agent1-writer">
          <mxGeometry width="50" height="50" relative="1" as="geometry">
            <mxPoint x="590" y="630" as="sourcePoint" />
            <mxPoint x="590" y="710" as="targetPoint" />
          </mxGeometry>
        </mxCell>
        
        <mxCell id="flow10" value="" style="endArrow=classic;html=1;rounded=0;" edge="1" parent="1" source="agent1-writer" target="final-output">
          <mxGeometry width="50" height="50" relative="1" as="geometry">
            <mxPoint x="590" y="780" as="sourcePoint" />
            <mxPoint x="700" y="810" as="targetPoint" />
            <Array as="points">
              <mxPoint x="590" y="800" />
              <mxPoint x="700" y="800" />
            </Array>
          </mxGeometry>
        </mxCell>
        
        <!-- Tool connections (dashed lines) -->
        <mxCell id="tool-conn1" value="" style="endArrow=classic;html=1;rounded=0;dashed=1;dashPattern=5 5;" edge="1" parent="1" source="agent1-draft" target="rag-tool">
          <mxGeometry width="50" height="50" relative="1" as="geometry">
            <mxPoint x="680" y="210" as="sourcePoint" />
            <mxPoint x="890" y="210" as="targetPoint" />
          </mxGeometry>
        </mxCell>
        
        <mxCell id="tool-conn2" value="" style="endArrow=classic;html=1;rounded=0;dashed=1;dashPattern=5 5;" edge="1" parent="1" source="agent1-draft" target="excel-tool">
          <mxGeometry width="50" height="50" relative="1" as="geometry">
            <mxPoint x="680" y="210" as="sourcePoint" />
            <mxPoint x="1030" y="210" as="targetPoint" />
          </mxGeometry>
        </mxCell>
        
        <mxCell id="tool-conn3" value="" style="endArrow=classic;html=1;rounded=0;dashed=1;dashPattern=5 5;" edge="1" parent="1" source="agent2-review" target="validation-tool">
          <mxGeometry width="50" height="50" relative="1" as="geometry">
            <mxPoint x="680" y="400" as="sourcePoint" />
            <mxPoint x="1030" y="290" as="targetPoint" />
            <Array as="points">
              <mxPoint x="850" y="400" />
              <mxPoint x="850" y="290" />
            </Array>
          </mxGeometry>
        </mxCell>
        
        <mxCell id="tool-conn4" value="" style="endArrow=classic;html=1;rounded=0;dashed=1;dashPattern=5 5;" edge="1" parent="1" source="agent1-final" target="analysis-tool">
          <mxGeometry width="50" height="50" relative="1" as="geometry">
            <mxPoint x="680" y="580" as="sourcePoint" />
            <mxPoint x="890" y="290" as="targetPoint" />
            <Array as="points">
              <mxPoint x="850" y="580" />
              <mxPoint x="850" y="290" />
            </Array>
          </mxGeometry>
        </mxCell>
        
        <mxCell id="tool-conn5" value="" style="endArrow=classic;html=1;rounded=0;dashed=1;dashPattern=5 5;" edge="1" parent="1" source="agent1-writer" target="file-writer-tool">
          <mxGeometry width="50" height="50" relative="1" as="geometry">
            <mxPoint x="680" y="745" as="sourcePoint" />
            <mxPoint x="1170" y="290" as="targetPoint" />
            <Array as="points">
              <mxPoint x="850" y="745" />
              <mxPoint x="850" y="340" />
              <mxPoint x="1240" y="340" />
              <mxPoint x="1240" y="290" />
            </Array>
          </mxGeometry>
        </mxCell>
        
        <!-- Step Labels -->
        <mxCell id="step2-label" value="2" style="ellipse;whiteSpace=wrap;html=1;aspect=fixed;fillColor=#fff2cc;strokeColor=#d6b656;fontSize=16;fontStyle=1;" vertex="1" parent="1">
          <mxGeometry x="460" y="200" width="30" height="30" as="geometry" />
        </mxCell>
        
        <mxCell id="step3-label" value="3" style="ellipse;whiteSpace=wrap;html=1;aspect=fixed;fillColor=#ffe6cc;strokeColor=#d79b00;fontSize=16;fontStyle=1;" vertex="1" parent="1">
          <mxGeometry x="460" y="380" width="30" height="30" as="geometry" />
        </mxCell>
        
        <mxCell id="step4-label" value="4" style="ellipse;whiteSpace=wrap;html=1;aspect=fixed;fillColor=#f8cecc;strokeColor=#b85450;fontSize=16;fontStyle=1;" vertex="1" parent="1">
          <mxGeometry x="460" y="560" width="30" height="30" as="geometry" />
        </mxCell>
        
        <mxCell id="step5-label" value="5" style="ellipse;whiteSpace=wrap;html=1;aspect=fixed;fillColor=#e1d5e7;strokeColor=#9673a6;fontSize=16;fontStyle=1;" vertex="1" parent="1">
          <mxGeometry x="460" y="735" width="30" height="30" as="geometry" />
        </mxCell>
        
      </root>
    </mxGraphModel>
  </diagram>
</mxfile>